<svg xmlns="http://www.w3.org/2000/svg" viewBox="0 0 381.97 379.12"><g id="Layer_2" data-name="Layer 2"><g id="Layer_1-2" data-name="Layer 1"><path d="M382,189.55c0,104.7-85.51,189.57-191,189.57S0,294.25,0,189.55,85.5,0,191,0,382,84.87,382,189.55Z" fill="#f3db7e"/><path d="M262.48,224.57c-25.6-11.06-21.05-32.78-20.24-35.9,7.15-25.34,38.72-55.84,75.31-70.21-29.74-21.53-60.07,2.44-60.07,2.44s5.75-7.24,28.06-16.78c-20.85,2.54-41.48,10.23-56.85,30.32-17.08,22.29-10.16,51.76-2.31,71.14-16.89-12.71-28.45-29.93-42-59.1-30.95-71.85-137-44.41-137-44.41s59.09,2.68,82.95,49.19c35.33,68.92,79.14,73.26,79.14,73.26-47.21-3.14-52.81,30.32-52.81,30.32s14.27-4.51,28.38-2.12c41.1,7,76.78-20.4,81.69-25.57.09-.09.16-.18.24-.27a2.2,2.2,0,0,0,.34-.46C265.65,225.8,264.05,225.19,262.48,224.57Z" fill="#0a6bad"/><path d="M107.21,293.51c.27-.71.46-1.15.59-1.59,1.16-3.84,2.35-7.67,3.44-11.52.3-1.11.76-1.62,2-1.57,2.42.1,4.85,0,7.25,0,.77,0,1.3.1,1.3,1.11q0,13,0,26.14a3.17,3.17,0,0,1-.11.61H114v-13l-.25-.08c-.18.56-.41,1.11-.56,1.68-.94,3.39-1.89,6.78-2.76,10.19-.26,1-.66,1.39-1.72,1.28-1.41-.13-3.24.4-4.16-.3s-1-2.54-1.35-3.89q-1.17-4.09-2.31-8.19a1,1,0,0,0-.48-.68v12.93H92.69c0-.47-.08-.89-.08-1.31,0-8.32,0-16.65,0-25,0-1.21.32-1.63,1.57-1.59,2.37.07,4.74.08,7.12,0,1.15,0,1.58.43,1.88,1.48,1.12,3.86,2.32,7.68,3.5,11.5C106.79,292.29,107,292.72,107.21,293.51Z" fill="#d92728" fill-rule="evenodd"/><path d="M144.12,306.79V288.67c0-2.84,0-5.68,0-8.52,0-.67,0-1.31.93-1.28,4.34.14,8.71-.08,13,.47a11.92,11.92,0,0,1,10.21,11.45,20,20,0,0,1-.94,8.26c-1.9,5.09-5.93,7.32-11.05,7.67C152.29,307,148.29,306.79,144.12,306.79Zm10-20.49c-.68.07-1.59-.29-1.57,1.05,0,3.52,0,7,0,10.56,0,.34.44,1,.7,1,3.19.17,5.68-.54,6.43-3.93a11.3,11.3,0,0,0,.12-3.76C159.4,287.86,157.55,286.34,154.11,286.3Z" fill="#d92728" fill-rule="evenodd"/><path d="M288.39,290.36c-2.63,0-5.19,0-7.74,0-.33,0-.76-.5-.95-.87-1.49-2.89-3.81-4.09-6.74-3.44a6.26,6.26,0,0,0-4.61,6.12,10,10,0,0,0,.84,3.93,5.38,5.38,0,0,0,4.86,3.28,5.28,5.28,0,0,0,5.31-3,2.26,2.26,0,0,1,2.45-1.35c2.16.08,4.32,0,6.44,0,.78,4.87-5.71,11.1-12.05,11.78a14.45,14.45,0,0,1-16.3-13.48,14.21,14.21,0,0,1,13.53-14.87C281.33,278.23,288.5,283.81,288.39,290.36Z" fill="#d92728" fill-rule="evenodd"/><path d="M217.45,306.81c-2.78,0-5.49.05-8.19,0-.35,0-.84-.56-1-1-1.09-3.11-1.07-3.11-4.35-3.11h-.44c-1.24,0-2.74-.4-3.63.17s-.94,2.08-1.48,3.15a1.5,1.5,0,0,1-1,.78c-2.65.06-5.31,0-8.2,0l1.11-2.85c3.14-7.91,6.29-15.81,9.39-23.74a1.78,1.78,0,0,1,2-1.39c1.28.09,2.58-.06,3.85.06a2,2,0,0,1,1.41.89c3.49,8.72,6.91,17.47,10.34,26.21A5.75,5.75,0,0,1,217.45,306.81Zm-13.84-15.63h-.36l-1.37,4.5h3.06Z" fill="#d92728" fill-rule="evenodd"/><path d="M133.15,288.72h7.52v7.45h-7.55v2.75h7.79v7.8H125c0-.4-.09-.82-.09-1.24,0-8.37,0-16.76,0-25.11,0-1.15.32-1.54,1.48-1.53,4.39.05,8.78,0,13.17,0,1.09,0,1.62.24,1.55,1.47-.11,1.91,0,3.81,0,6h-6.09C132.85,286.3,132.85,286.3,133.15,288.72Z" fill="#d92728" fill-rule="evenodd"/><path d="M241.54,306.82c0-.66-.08-1.16-.08-1.63,0-8.22,0-16.44,0-24.66,0-1.25.31-1.73,1.64-1.69,4.29.07,8.59.05,12.87,0,1.22,0,1.68.4,1.62,1.61a38,38,0,0,0,0,4.27c.1,1.33-.46,1.67-1.71,1.61-1.68-.11-3.36,0-5,0-.85,0-1.38.13-1.39,1.17s.53,1.28,1.46,1.25c1.67,0,3.35.06,5,0,1.06-.05,1.39.35,1.36,1.35-.05,1.6-.05,3.23,0,4.85,0,1-.3,1.38-1.36,1.33-2.05-.08-4.12,0-6.15,0-.74,2.34-.49,2.73,1.76,2.73,1.62,0,3.25,0,4.87,0,.81,0,1.17.29,1.16,1.1,0,1.9,0,3.82,0,5.73,0,.71-.25,1.06-1,1.06C251.58,306.8,246.66,306.82,241.54,306.82Z" fill="#d92728" fill-rule="evenodd"/><path d="M221.67,306.71V288.53c0-2.23,0-2.23-2.22-2.23h-5.37v-7.23H238.6v7.23c-1.88,0-3.78.07-5.67,0-1.46-.08-2,.31-1.93,1.85.09,5.62,0,11.26,0,16.88v1.71Z" fill="#d92728" fill-rule="evenodd"/><path d="M186.84,299v7.77a5.79,5.79,0,0,1-.76.08c-4.63,0-9.26,0-13.91,0-1,0-1.3-.31-1.3-1.26,0-8.47,0-16.92,0-25.4,0-1.05.48-1.35,1.44-1.32,1.87,0,3.74,0,5.62,0,1.06-.05,1.31.42,1.31,1.39,0,5.68,0,11.36-.05,17,0,1.4.47,1.76,1.78,1.7C182.87,298.89,184.8,299,186.84,299Z" fill="#d92728" fill-rule="evenodd"/></g></g></svg>