<svg viewBox="0 0 566.05 498.67" xmlns="http://www.w3.org/2000/svg">
 <g data-name="Layer 2" id="Layer_2">
  <g data-name="Layer 1" id="Layer_1-2">
   <path fill="#fff" d="M14.22,432.53l-6.46-1-3.56-.85c-1.32-.33-2.17-.56-2.53-.7l-.61-.77-.4-.84-.66-1,.57-.81a3.88,3.88,0,0,1,1.59-.16l1.64.08.93-.16.42-.08.53-.08a26.45,26.45,0,0,1,7.1,1l.61-.08h.44a12.16,12.16,0,0,1,2.46.36l1,.25a1.49,1.49,0,0,1,.65.12q6.06.24,16.21,3.4l7.19,2.23a27.43,27.43,0,0,1,7.76,3.85q4.55,3.15,4.54,7.37a7.68,7.68,0,0,1-1.59,4.47,29.4,29.4,0,0,1-6.55,6.31L43,456.81A11.63,11.63,0,0,0,41.28,458l-.94,1,1.1-.25,1.27-.15a1.81,1.81,0,0,1,1.15.32c.14.51-.17.95-.9,1.29l-1.35.66-2.16.85-5.11,1.74c-3.35,1.14-6.17,2-8.45,2.55a36.87,36.87,0,0,1-8.79,1.13c-2.36,0-3.77-.4-4.24-1.2a1.93,1.93,0,0,1,0-.33,1.39,1.39,0,0,1,.64-1.1l1.32-.52,1.54-.61,2.33-.77c1.72-.25,4-.69,6.77-1.33Q36.91,457,42.26,451l1.6-1a2,2,0,0,1,.56-1.29l.65-1.91-.15-1.62-.17-.64-.61-.37-.65-.41a7.94,7.94,0,0,0-3.55-3.44c-1-.54-3-1.46-6-2.75-.44-.2-1.1-.46-2-.82a4.87,4.87,0,0,0-1.06-.44l-3.07-.69a32.91,32.91,0,0,1-3.31-.9l-3.88-1c-.34.08-.73.81-1.14,2.19l-.66,2.22-3.92,20.4a5.58,5.58,0,0,1-1.83,2.87,4.52,4.52,0,0,1-2.94,1.67,1.57,1.57,0,0,1-1.07-.45l-.69-.6.21-2.4a16.33,16.33,0,0,0-.21-4.05l-.65-3.94a8.3,8.3,0,0,1-.12-1.54,9,9,0,0,1,.09-1.25,6.77,6.77,0,0,0-.13-.94,5.12,5.12,0,0,1-.12-.92,3.19,3.19,0,0,1,.12-.82,5.06,5.06,0,0,1,0-1.17l.12-.57a.34.34,0,0,0-.12-.28l.16-1.06.29-2.23L8.25,437a2.69,2.69,0,0,1,1.38-1.87c.13,0,.85-.45,2.21-1.21a5,5,0,0,1,2.7-1Z"/>
   <path fill="#fff" d="M55.17,455.71l-.21-.85V454l-.13-.92.78-.73a10.43,10.43,0,0,0,1.8-2.15l.21-1.46c.05-.16.55-.4,1.51-.73l1.42-.29a2.14,2.14,0,0,1,2.17,1q.12,1.17.12,1.74a1.42,1.42,0,0,1,0,.49c-.65.57-.95,1-.89,1.41a3.26,3.26,0,0,0-.22,1.1,3,3,0,0,0,.12,1.17,1.79,1.79,0,0,0,1.33.93l1.79-.6.84-.61c.34-.32.81-.85,1.44-1.54V454L66.64,456a5.14,5.14,0,0,1-2.45,2l-1.19.46-1.59.2a7.13,7.13,0,0,1-1.71-.49l-1.1-1-.53-1.49-.25-1.26c0,.11,0-.61.15-2.15-.15,0-.52.39-1.1,1.14l-.65.85c-.1.21-.22.46-.36.73-.06.08-.13.21-.25.4l-.41.32Zm2.45-13.26a2.62,2.62,0,0,1,.41-1.78,2.5,2.5,0,0,1,1.42-1.13c.06-.65.74-1.09,2-1.31l.29,0a1.65,1.65,0,0,1,.69.53,7.45,7.45,0,0,1-.33,2.63,2.27,2.27,0,0,1-.88,1.74l-1.37.94-.78.08a1.23,1.23,0,0,1-1.14-.5l.17-.11A2.62,2.62,0,0,1,57.62,442.45ZM58.31,466a2.28,2.28,0,0,1,1.27-2.22,2.05,2.05,0,0,0,1-.58l.74-.72a2.51,2.51,0,0,1,1.15-.37,1.89,1.89,0,0,1,1.91,1.14,3.06,3.06,0,0,1-.44,1.78,13.51,13.51,0,0,1-1.73,1.49,5.29,5.29,0,0,1-1.47.65l-.81.13a1.14,1.14,0,0,1-.9-.17l-.12-.16A3.6,3.6,0,0,1,58.31,466Z"/>
   <path fill="#fff" d="M66.92,452.55l.86-.73,1.07-.69c0-.46.6-1.22,2-2.27l1.8-1.37,1.63-1.09.87-.74a6.25,6.25,0,0,1,1.22-.69l.48-.08.66-.12.57,0,.38.86.19.9c.11.87-.9,1.84-3,2.92A4.9,4.9,0,0,1,74,451.14l-2,1.54a2.08,2.08,0,0,0-.43,1.7l-.07.69.2.52.3.53a.92.92,0,0,0,.57.41l2,.28.57-.18a9.79,9.79,0,0,0,3.14-1.81c1.14-.9,1.74-1.54,1.81-1.95l.12-.17.16.09a1.48,1.48,0,0,1,.28.16l.29.41.16.6.09.73c0,.57-.85,1.41-2.45,2.52l-1.6,1.1-1.59.81a6.81,6.81,0,0,1-3.06.64,5.63,5.63,0,0,1-3.71-1.66,12.27,12.27,0,0,1-.79-2L67.57,455l-.24.12-.21.24-.4.41-.13-.25-.24-2.35.29-.27Z"/>
   <path fill="#fff" d="M87.1,457l-1.14.73c-.28.18-.51.73-.7,1.68a15.24,15.24,0,0,1-.45,2,2.64,2.64,0,0,0-.13.76,5.09,5.09,0,0,0,.25,1.28,4.53,4.53,0,0,1,.24,1.2,1.57,1.57,0,0,1-.2.76l-1.22.74-1.88.19a1.24,1.24,0,0,1-1.39-1.16L80.16,463l-.45-4.18,0,.25c-.38.41-.8.82-1.22,1.26a6.11,6.11,0,0,1-1.33.9l.62-1.67,1.11-2.88,1-3.13.16-1.7c.26-3.15.56-6.29.85-9.43s.59-5.51.86-7.1l.49-2.79a18.28,18.28,0,0,1,.87-3.49l.35-1.74.57-1.7.66-2.11c.23-.75.68-2,1.35-3.77s1.51-2.9,2.08-3.2a.8.8,0,0,1,.79.52l.4.41a4.54,4.54,0,0,1,.94,2.88,29.31,29.31,0,0,1,.12,2.95c.05,1.34.05,2.54,0,3.66a46.42,46.42,0,0,1-1.06,8.17q-.29,1.26-2.51,8.43l-.53,1.14-.52,1.17-2.16,5.36-.13.73L83.22,455v3.89c0,.21,0,.33,0,.33l.15-.24c.09-.25.17-.51.29-.78.62-1.54,1-2.47,1.21-2.8A10.34,10.34,0,0,1,86.69,453a5.11,5.11,0,0,1,1.68-1.12,4.43,4.43,0,0,1,1.9-.47,9.23,9.23,0,0,1,1.27.65,4.63,4.63,0,0,1,1.23,1.38,3.25,3.25,0,0,1,.61,1.62.93.93,0,0,1-.12.4c-.11.25-.17.4-.2.45a12.24,12.24,0,0,1-.75,1.44,4.49,4.49,0,0,0-.7,1.48.2.2,0,0,0,.11.2l1.62-1.14a16.41,16.41,0,0,0,2.13-2.31l2-2.67c-.59,1.89-1,3-1.14,3.45a12.83,12.83,0,0,1-.86,1.46,13.37,13.37,0,0,0-.91,1.42L94,460a9.82,9.82,0,0,0-.72.85c-.22.22-.58.54-1,1a5.57,5.57,0,0,1-3.1,1.26s-.14.05-.41.07a2.24,2.24,0,0,1-.73,0,1.37,1.37,0,0,1-1-1.53,7.71,7.71,0,0,1,.52-1.67l.78-2A1.62,1.62,0,0,0,87.1,457ZM86,439.9c0-.16.16-.52.32-1.07s.29-1,.41-1.44a7.67,7.67,0,0,0,.61-1.74l.28-1.18.87-4.78.27-3a11,11,0,0,0,.13-1.82l-.2-1.66L88,424.35l-.41.72a6.43,6.43,0,0,0-.57,1.3l-.41,1.3-.69,2.5c-.08.36-.29,1.24-.65,2.64-.06.24-.18.71-.36,1.39a5.57,5.57,0,0,1-.22,1,11.34,11.34,0,0,1-.29,2c-.21,1.14-.33,1.88-.35,2.23l-.41,4.45-.29,2.44,1.26-2.51.83-1.91Z"/>
   <path fill="#fff" d="M126.36,463.36l-.55.33-1,.62a3.54,3.54,0,0,1-1.59,1.12h-1.06c-1.67,0-2.61-.4-2.82-1.22l-.13-.44a1.72,1.72,0,0,1,.49-1.26l.67-.76-2.21-3.82-.82-1.7c-.28-.1-.61-.65-1-1.66-.08-.21-.26-.59-.49-1.13-.16-.35-.36-.84-.62-1.5a12.36,12.36,0,0,1-1.05-2.64l-.57-1.78-.74-1.78a58.27,58.27,0,0,1-1.71-5.76c-.12-.43-.34-1.23-.66-2.42l-.32-2.41-.5-2-.53-1.46,0-1.74.33-1.9a4,4,0,0,1,1.14-2.39l.78-.21,1-.32,1.3-.52.85-.16c.79,0,1.26.3,1.39.92l.74,3.53a12.79,12.79,0,0,1,0,4.62l1.34,7c.15.51.39,1.46.74,2.87l1.06,4.18a16.86,16.86,0,0,1,.86,2.66l.53,1.87a9.92,9.92,0,0,1,1.18,2.15c.7,1.54,1.18,2.34,1.44,2.39s.93-1.06,2-3a17.09,17.09,0,0,0,1.22-2.95c.61-1.67,1-2.85,1.34-3.52l1.1-2.76,1.21-3.32.49-2.55,0-2.23q-.5-3.4,1.38-4.51l.73-.23,1.15-.33.52-.33.62-.19a1.19,1.19,0,0,1,1,.65,19.7,19.7,0,0,1,.16,3.88,24.23,24.23,0,0,1-.16,2.92c-.14.58-.45,1.6-.9,3.07l-.49,1.35-.26.88-.56,1.51a10.93,10.93,0,0,0-.91,2.1l-.85,2.64-.36,1-1.35,2.9a17.25,17.25,0,0,1-1.56,3.54l-1.13,2,.44,1.34a1.69,1.69,0,0,1-.7,1.36Z"/>
   <path fill="#fff" d="M134.38,455.38l-.12-.24-.25-.69c-.06-.43.18-.78.69-1.05a12.26,12.26,0,0,0,2.58-2.07l1.31-1.34,1.33-1.53,1.92-2.35a4.84,4.84,0,0,1,2.91-.85c.27,0,.42.15.48.48a6.79,6.79,0,0,1-.65,3.08,11.54,11.54,0,0,0-.89,3.49l0,.64.08.89,0,.7c.25,1.4.64,2.28,1.21,2.63l.41.24,1.3-.53,1.19-.57,1.62-1.48,1.7-1.45,1.34-1.73a10.37,10.37,0,0,1,1.6-1.75,2.92,2.92,0,0,1,1.77-.56,2.12,2.12,0,0,1,2.25,2.08c.38,2.23,1.44,3.36,3.18,3.36a3.36,3.36,0,0,0,1.5-.29l1.51-.76.44-.33.05.08a6.09,6.09,0,0,0,.08.76l.08.62c.05.46-.53.93-1.76,1.42a11,11,0,0,1-4,.89c-2.12,0-3.56-.64-4.33-1.94-.57-1-1.1-1.46-1.6-1.56l-.39.22-1,.8-1.15,1.18a23,23,0,0,1-3.63,3,5.89,5.89,0,0,1-3.38.85,9.33,9.33,0,0,1-2.29-.52,4,4,0,0,1-1.26-.85l-.45-.74-.21-.7-.61-1.9-.2-.76-.33-1.14-1,.37-.78.37-1.55.93Z"/>
   <path fill="#fff" d="M153.35,464.34a1.43,1.43,0,0,1,.14-.65l.28-.69a2.41,2.41,0,0,1,1.06-.93,2.79,2.79,0,0,0,.74-.52l.76-.73a2.8,2.8,0,0,1,1.12-.37,1.88,1.88,0,0,1,1.91,1.13,3,3,0,0,1-.44,1.78,3.93,3.93,0,0,1-2.74,1.58,1.56,1.56,0,0,0-1.06.65l-.74,0a.48.48,0,0,1-.32-.08l-.15-.16A2.82,2.82,0,0,1,153.35,464.34Z"/>
   <path fill="#fff" d="M194.51,464.59c0,.15-.19.29-.69.4l-.69-.08-.7-.53a2.9,2.9,0,0,1-.69-.85l-.33-1.14-.73-2.14-.25-1.34a9.34,9.34,0,0,0-.38-1.5l-.52-3.08-.24-2.07v-7.73q-.07-5.52,0-6l-.16-1.54.16-2.07-.16-2.8-.09-.4-.56-.41-1.27-.16-3.47.44a33.52,33.52,0,0,0-6.24,1.29l-1.64.2a1.64,1.64,0,0,1-1.18-.64l.49-1.54a5.31,5.31,0,0,1-.12-1.07,2.38,2.38,0,0,1,1-2.23c.2-.41.79-.77,1.81-1.06l1.46-.25,1.92-.2a10.71,10.71,0,0,0,1.36-.12,9.54,9.54,0,0,1,1.26-.13l1.74-.08,5.29-.2,7.29.2,2.42.16,1.18.13.4.07h.6l.8.08c.43,0,1.06.11,1.92.23s1.33.51,1.41,1.14a3.37,3.37,0,0,1-1.33,1.15,2.42,2.42,0,0,1,.93,1.05,3.21,3.21,0,0,1-.41.84c-.07.17.17.42.74.75s.64.39.53.39a40.74,40.74,0,0,0-8.78-1.24c-2.91-.14-4.39.08-4.45.64l1,.57,1.7,1.16a4.11,4.11,0,0,1,.9,1.5l.09.33.09.9a2.16,2.16,0,0,1-.05.73l-.13.85-.31,1.95c-.28,1.42-.66,3.58-1.15,6.43a49.1,49.1,0,0,0-.73,8.28c0,.85,0,1.51,0,1.94l.05.65.08.89.2,1.33.41,3.24.56,2.89-.66-.52h-.89Z"/>
   <path fill="#fff" d="M209.09,458.79a2.66,2.66,0,0,1-1.62-1.76.88.88,0,0,0-.13-.35v-3c-.24,0-.64.31-1.25.92a4,4,0,0,1-1.13,1l0-.24a4.94,4.94,0,0,1,0-1.09l-.07-.21-.13-.12-.08-.68a9.6,9.6,0,0,1,1.63-2l2.38-2.32a4,4,0,0,1,.82-1.25l2.58-2.4.56-.07c.78,0,1.24.15,1.34.48l-.15.44-.21.66a3.12,3.12,0,0,0,1.13-.33l1.11-.29a3.48,3.48,0,0,1,2.71,1.27l.31.55.34,1.26a8.33,8.33,0,0,1,.07,1.1,5.2,5.2,0,0,1-.49,2.55l-.4.72a11.29,11.29,0,0,0-.53,1.11l-.79.84-.31.58-1.69,1.57-1.18,1a3.83,3.83,0,0,1-2.57.73C210.15,459.52,209.4,459.28,209.09,458.79Zm6.84-4.9a8.88,8.88,0,0,0,.39-1.5v-.94c0-1.05-.52-1.58-1.42-1.58a1.52,1.52,0,0,0-.93.24l-.93.94c-.3.67-.7,1-1.2,1a5.49,5.49,0,0,0-.91,3.08l0,.32c.09.82.45,1.26,1.05,1.35A8.35,8.35,0,0,0,215.93,453.89Z"/>
   <path fill="#fff" d="M206.92,442.18a3.18,3.18,0,0,1-1.2-.15,3.12,3.12,0,0,1-.76-.84,3.43,3.43,0,0,1,1.28-3,11.44,11.44,0,0,1,3.51-2.23l1.64-.65,1.18-.29a6.9,6.9,0,0,1,1.47-.16,5.78,5.78,0,0,1,1.28.13,21.15,21.15,0,0,1,2.19.68l1.83,1a8.12,8.12,0,0,1,1.6,1.19c.65.6,1.28,1.21,1.92,1.83A9.12,9.12,0,0,1,224,442l.09.65-.09.45L222.16,441l-1.42-1.26a11.81,11.81,0,0,0-5.6-2.72,8.9,8.9,0,0,0-2.94.37l-1.67,1a13.77,13.77,0,0,0-1.44,1.63l-.85,1.53-.57.53ZM220.82,425a7.16,7.16,0,0,0,1.18-3.24,3.06,3.06,0,0,1,1.55-.2,1.63,1.63,0,0,1,1.17.57,1.48,1.48,0,0,1,.38,1.22l-.41.88-.41.62-.82,1.09a5.08,5.08,0,0,1-1.05,1.18c-.22.21-.63.63-1.23,1.25a7.72,7.72,0,0,1-1.34,1.05l-1.44.9a28.52,28.52,0,0,1-4,2.71,32.66,32.66,0,0,1-3.66,1.82,4.51,4.51,0,0,1-1.56.53c-.6-.27-.43-.75.53-1.46a27.82,27.82,0,0,1,3.19-1.74l1.83-.89,3.64-3.2,1.06-1.09Z"/>
   <path fill="#fff" d="M227.06,457.17a21.14,21.14,0,0,1,.28-5.56l.52-3.08-1.22,2-1.78,2.75L223,455.87l-.17-.64-.2-1a2,2,0,0,1,.82-2l.94-1.13c.42-.69.92-1.53,1.47-2.5.09-.1.39-.64.94-1.62.19-.34.38-.69.56-1l.54-1-1.95.29H223.7a2.71,2.71,0,0,1-1-.22c-.53-.15-.8-.34-.82-.55a4,4,0,0,1,.07-1.37c.17-.94.26-1.42.26-1.42-.09-.59-.13-1.21-.18-1.88a4,4,0,0,1,1.43-.15h2.09l1,.15h1.55a5.08,5.08,0,0,1,.78,0,1.63,1.63,0,0,0,1.19-.88l.69-1.8a2.92,2.92,0,0,1,1.05-1.37l.42.07.17.09a1.41,1.41,0,0,1,.84,1.1v.84l-.16.66-.2.73a.94.94,0,0,0,.4.52l.62.45-.2,1.49.08,1.18c0,.06.14.19.42.41s.44.34.44.39a4.84,4.84,0,0,0-1,.25,7.78,7.78,0,0,1-.9.25c-.65.13-1,.28-1,.44l-.08.77a4.84,4.84,0,0,1-.09.86l-.65,3.89-.36,2.88-.05,2.42.29.74a2.23,2.23,0,0,1,.46.08,1.92,1.92,0,0,0,.48,0,4.57,4.57,0,0,0,2-1.23l.66-.6.77-.9.37-.32c.08,0,.11.09.08.25a1.46,1.46,0,0,0,0,.6,2.74,2.74,0,0,1-1.19,2.36l-.9,1-.37.37-.89.93c-1.39,1.43-2.32,2.19-2.77,2.27a2.6,2.6,0,0,1-2.25-2.15Z"/>
   <path fill="#fff" d="M259.2,451.53H259a12.63,12.63,0,0,0-2.54.37l-2.77-.16h-1a.8.8,0,0,1-.83-.45,2.94,2.94,0,0,1,.86-2,1.72,1.72,0,0,1,1.3-.62h6.77c.53,0,.83.48.95,1.43.1,1.1-.39,1.66-1.47,1.66l-.58-.12Z"/>
   <path fill="#fff" d="M285.19,464.31a18.24,18.24,0,0,1-9.38-4,16.1,16.1,0,0,1-4.33-4.74,5.55,5.55,0,0,1-.56-1.14l-.33-.81a5.18,5.18,0,0,0-.3-1l-.06-.66-.22-.81.12-1.38a12.06,12.06,0,0,1,.14-1.42c.07-.3.21-.84.36-1.66a17.44,17.44,0,0,1,2.07-5.83l.88-.94,1.06-1.42,1.14-1.18,1.17-.88,2.16-1.95a7.19,7.19,0,0,1,2.9-1.35c-.05-.31.37-.65,1.27-1l3.84-1.62a41.32,41.32,0,0,1,16-3.57h1.39c6.55,0,10.4,1.2,11.59,3.57l.79,1.54.9,1.94a7.62,7.62,0,0,0,.16,1.21l.27,1.55,0,1.78-.65,2.31c-.28,1-.54,1.91-.81,2.8-.19.68-.39,1.05-.58,1.13l-.61,1-.62,1.06-.77,1.42c-.28.52-2.08.88-5.44,1.09l-2.12-.32-.64-.9a14.3,14.3,0,0,1-.38-3.19,15,15,0,0,1,2.49-7.71l2.13-2.11a1.7,1.7,0,0,0,.08-1l-.08-.37c-.1-.51-2-1.2-5.56-2.06l-1-.08h-1.51q-9.63,0-14.58,3.52a17,17,0,0,0-4.09,4.37,12.53,12.53,0,0,0-2,3.9l-.73,3.57c0,.4-.16,1.37-.4,2.87l.28,1.82.29.73.19,1.1.46.56.28.41.58.85,1.27,1.43,1.54,1.21,1.35.81,2.16,1,2.7,1a27.54,27.54,0,0,0,6.29,1.5,8.9,8.9,0,0,1,2,.12,48.89,48.89,0,0,0,8.54-.6c.83-.13,2.18-.42,4-.88l2-.7c-.26,0,0-.12.65-.32.44-.14.87-.28,1.3-.4a4.89,4.89,0,0,0,1-.57l2.91-2.13-.69,1.79a11,11,0,0,1-3.25,3.21l-1.46.85-2.19.81-4.86,1.21a39.2,39.2,0,0,1-9.57,1.14,60.27,60.27,0,0,1-6.69-.57Z"/>
   <path fill="#fff" d="M326,458.79a2.65,2.65,0,0,1-1.63-1.76.88.88,0,0,0-.13-.35v-3c-.24,0-.66.31-1.24.92a4.88,4.88,0,0,1-1.12,1l-.05-.24a4.39,4.39,0,0,1,.05-1.09l-.09-.21-.12-.12-.08-.68a8.59,8.59,0,0,1,1.62-2l2.38-2.32a4.36,4.36,0,0,1,.81-1.25l2.57-2.4.58-.07c.79,0,1.24.15,1.34.48l-.16.44-.21.66a3.16,3.16,0,0,0,1.14-.33l1.11-.29a3.47,3.47,0,0,1,2.71,1.27l.31.55.33,1.26a10.62,10.62,0,0,1,.09,1.1,5.3,5.3,0,0,1-.5,2.55l-.4.72c-.2.36-.37.73-.54,1.11l-.77.84-.33.58L332,457.77l-1.19,1a3.86,3.86,0,0,1-2.57.73C327.08,459.52,326.33,459.28,326,458.79Zm6.81-4.9a6.55,6.55,0,0,0,.41-1.5v-.94c-.06-1.05-.53-1.58-1.41-1.58a1.53,1.53,0,0,0-.94.24l-.93.94c-.3.67-.7,1-1.22,1a5.74,5.74,0,0,0-.89,3.08l0,.32c.11.82.46,1.26,1,1.35A8.12,8.12,0,0,0,332.85,453.89Z"/>
   <path fill="#fff" d="M323.88,442.18a3.31,3.31,0,0,1-1.22-.15,3,3,0,0,1-.74-.84,3.35,3.35,0,0,1,1.25-3,11.68,11.68,0,0,1,3.51-2.23l1.64-.65,1.19-.29a6.83,6.83,0,0,1,1.47-.16,5.78,5.78,0,0,1,1.28.13,21.94,21.94,0,0,1,2.19.68l1.83,1a7.76,7.76,0,0,1,1.59,1.19c.66.6,1.3,1.21,1.93,1.83A9.43,9.43,0,0,1,341,442l.08.65-.08.45L339.1,441l-1.43-1.26a11.78,11.78,0,0,0-5.59-2.72,8.9,8.9,0,0,0-2.94.37l-1.69,1A15.23,15.23,0,0,0,326,440l-.88,1.53-.55.53Z"/>
   <path fill="#fff" d="M324.93,442.18a2,2,0,0,1-.69-4,11.56,11.56,0,0,1,3.51-2.23l1.63-.65,1.18-.29a7,7,0,0,1,1.48-.16,5.78,5.78,0,0,1,1.28.13,21.86,21.86,0,0,1,2.2.68l1.82,1a7.76,7.76,0,0,1,1.59,1.19c.67.6,1.3,1.21,1.92,1.83A8.74,8.74,0,0,1,342,442l.08.65-.08.45L340.15,441l-1.42-1.26a11.82,11.82,0,0,0-5.59-2.72,8.9,8.9,0,0,0-2.94.37l-1.68,1A14,14,0,0,0,327.1,440l-.86,1.53-.57.53Z"/>
   <path fill="#fff" d="M341.09,453.19l-.54.25c-.05.14-.25.29-.57.48l-.63.77L339,455l-.21.16-.17.05-.16-.21v-.81l-.17-.93c-.06-.28.1-.53.45-.76a2.37,2.37,0,0,1,.74-1l1-.89.91-.73,2.05-1.61.89-.66a4.15,4.15,0,0,1,1.93-.4,1.82,1.82,0,0,1,2,1.7,3.68,3.68,0,0,1-.17,1.5l-.25.86-.87,2.76,0,.43-.05.49.89-.9.46-.28,1.14-1,1.1-.89c.46-.49.94-1,1.42-1.46a2.81,2.81,0,0,1,1.72-.81,5.34,5.34,0,0,1,2.54.89l1.31,1.26.27,1-.16,1.06c-.08.18-.34.67-.81,1.45a3.5,3.5,0,0,0-.57,1.34.48.48,0,0,0,.08.27l1.72-.89,1.83-1.24c.1-.11.64-.6,1.6-1.46.24-.25.67-.63,1.3-1.18a10,10,0,0,1-1.4,3,23.18,23.18,0,0,1-5.26,4.14,19.93,19.93,0,0,1-3,.92l-1.16.13c-.75.07-1.13-.27-1.13-1.05a7.7,7.7,0,0,1,.77-2.8c.17-.35.43-1,.83-2l-.14-.57-.36-.25-.62.22-2,1.49c-.27.27-.78.81-1.51,1.57l-1.67,1.92a4.71,4.71,0,0,1-.89,1.38,2.57,2.57,0,0,1-1.72,1.09,3,3,0,0,1-1.55-.4l-.38-.49-.54-1.17a5,5,0,0,0-.07-1l.17-1,.24-1,.46-1.38v-.73l.07-.49c.09-.1.09-.17,0-.2s-.17-.08-.17-.16Z"/>
   <path fill="#fff" d="M360.94,457.65l.94-2.87.78-1.23.57-1.57c.07-.35.21-.87.4-1.58l.5-1.17a17.75,17.75,0,0,1,1.27-2.81,4.5,4.5,0,0,1,.81-1.33,5.8,5.8,0,0,1,1.2-1.25,6.5,6.5,0,0,1,3.86-1.75,4.06,4.06,0,0,1,1.16.26,2.09,2.09,0,0,1,.93.55l.77,1c0,.07.05.37.12.9a1.79,1.79,0,0,1,0,.7l-.2,1.7-1.31-.85-1.63-.33a2.31,2.31,0,0,0-1.75,1.07,5,5,0,0,0-1.1,1.7l-.47,1.32c-.31.79-.75,2.07-1.3,3.85a11.39,11.39,0,0,0-.37,1.71l.12.69.53.32.83-.89,1.15-1.9a23.3,23.3,0,0,1,1.1-2.44,4.59,4.59,0,0,0,.42-1.8,5.55,5.55,0,0,1,.15-1.24c.18-.46.87-.79,2-1l1,.61a1.26,1.26,0,0,1,.48,1,2.44,2.44,0,0,1-.11.69l-.62,2.18v1.92a9.75,9.75,0,0,1,0,1.13v.44c0,.38,0,.79,0,1.25s0,1.12,0,2l-.08,1.82-.69,10.9.37,17.43a22.72,22.72,0,0,0,.78,4.06,13.94,13.94,0,0,1,.58,4,2.28,2.28,0,0,1-1.89,1.77,10,10,0,0,1-1.8.09c-.26,0-.64-.41-1.14-1.21a5.08,5.08,0,0,1-.76-3.22s.27-.75.84-2.18a15.17,15.17,0,0,0,.79-4.13v-1.74c0,.18,0-1.35.06-4.63.08-4.07.15-8.62.18-13.61V457c0-1.31-.11-2-.36-2.09s-.32.34-.65,1l-.56,1.22a20,20,0,0,1-3.31,5.47,1.32,1.32,0,0,1-.88.41c-.76,0-1.33-.62-1.71-1.82l-.36-2c0-.49,0-1.52.08-3.08a1.75,1.75,0,0,0-1,.52A3.09,3.09,0,0,0,360.94,457.65Z"/>
   <path fill="#fff" d="M388.14,463l.32-3.81.54-7.05.32-7.86.09-6.56a9.39,9.39,0,0,1,.36-2.81l-.29-1.25a6.65,6.65,0,0,1-.16-1.29c0-1.91,1.08-2.85,3.27-2.85l.86.14.69.31.73.42s.34-.35.95-1l1-1.07a1.28,1.28,0,0,1,1-.36c.9,0,1.41.31,1.52,1a3.47,3.47,0,0,1-.21,1.69l-.85,2.37a1,1,0,0,0,0,.4,6.58,6.58,0,0,0,.29,2.1l-.33-1,1.31,2.92,1.18,1.42,1.1,2.26,3.08,5.11,1.55,2.39,1.6,2.74c.38.61,1.35,2,2.87,4a13.07,13.07,0,0,0,1,1.29,3,3,0,0,0,1.06.85c.56-.8.86-3.36.86-7.66,0-.63,0-1.68-.08-3.21l-.22-5.61L413,435a15.92,15.92,0,0,1,1.27-8.14,7.53,7.53,0,0,1,2.5-1.46c.31,0,.57.66.76,1.94l.21,1.47v1.22l.29,12.72a24,24,0,0,1,.24,2.55c0,.89,0,2-.09,3.32l-.44,7.46a22,22,0,0,1-.53,3.61l-.4,1.74a3.14,3.14,0,0,1-.75,1.63l-2,.68a10.86,10.86,0,0,1-2.32.64q-1.31,0-5.06-4.77l-3-3.8c-.11-.17-.74-1.07-1.89-2.72-.37-.54-1-1.47-2-2.8l-2.27-3.41a10.88,10.88,0,0,0-2.21-2.59l-.45,1.09-.28,1.29-.57,2.8-.38,2.48-1.09,6.15-.78,3,.12.77a6.92,6.92,0,0,1-.53,2.35l-.69,2.06-.49.16-.7.21-.72.2c-.45,0-.73-.36-.83-1.09v-1.06l0-.6Z"/>
   <path fill="#fff" d="M418.47,457.65l.93-2.87.79-1.23.57-1.57c.08-.35.22-.87.4-1.58l.5-1.17a21.59,21.59,0,0,1,1.25-2.81,5.55,5.55,0,0,1,.83-1.33,6.06,6.06,0,0,1,1.18-1.25,6.59,6.59,0,0,1,3.89-1.75,3.71,3.71,0,0,1,1.13.26,2,2,0,0,1,.94.55l.79,1a8.23,8.23,0,0,0,.12.9,2.58,2.58,0,0,1,0,.7l-.2,1.7-1.3-.85-1.64-.33a2.31,2.31,0,0,0-1.76,1.07,5.34,5.34,0,0,0-1.1,1.7l-.44,1.32c-.34.79-.76,2.07-1.32,3.85a9.39,9.39,0,0,0-.35,1.71l.12.69.52.32.83-.89,1.14-1.9a21.26,21.26,0,0,1,1.1-2.44,4.59,4.59,0,0,0,.42-1.8,5.88,5.88,0,0,1,.14-1.24c.19-.46.88-.79,2-1l1,.61a1.25,1.25,0,0,1,.5,1,2.5,2.5,0,0,1-.12.69l-.62,2.18v1.92a9.13,9.13,0,0,1,.05,1.13v.44c0,.38,0,.79,0,1.25s0,1.12,0,2l-.07,1.82-.7,10.9.36,17.43a22.15,22.15,0,0,0,.79,4.06,13.7,13.7,0,0,1,.56,4,2.26,2.26,0,0,1-1.87,1.77,10.07,10.07,0,0,1-1.8.09c-.28,0-.66-.41-1.15-1.21a5.16,5.16,0,0,1-.78-3.22s.28-.75.87-2.18a16.58,16.58,0,0,0,.77-4.13v-.49l0-.4v-.85c0,.18,0-1.35.06-4.63.09-4.07.14-8.62.19-13.61V457c0-1.31-.13-2-.36-2.09s-.33.34-.65,1l-.57,1.22a20.24,20.24,0,0,1-3.31,5.47,1.38,1.38,0,0,1-.9.41c-.76,0-1.31-.62-1.68-1.82l-.37-2c0-.49,0-1.52.08-3.08a1.77,1.77,0,0,0-1,.52A2.76,2.76,0,0,0,418.47,457.65Z"/>
   <path fill="#fff" d="M440.27,457l-1.13.73c-.27.18-.51.73-.69,1.68a17.16,17.16,0,0,1-.47,2,3,3,0,0,0-.13.76,5.72,5.72,0,0,0,.26,1.28,5,5,0,0,1,.24,1.2,1.47,1.47,0,0,1-.2.76l-1.21.74-1.9.19a1.24,1.24,0,0,1-1.38-1.16l-.32-2.16-.45-4.18,0,.25c-.39.41-.78.82-1.23,1.26a5.35,5.35,0,0,1-1.3.9l.61-1.67,1.09-2.88,1-3.13.16-1.7c.27-3.15.55-6.29.86-9.43s.58-5.51.84-7.1l.5-2.79a16.84,16.84,0,0,1,.87-3.49l.36-1.75.57-1.69.66-2.11c.21-.76.66-2,1.34-3.77s1.51-2.9,2.09-3.2a.78.78,0,0,1,.77.52l.41.41a4.48,4.48,0,0,1,.95,2.88c.1,1.84.15,2.82.11,2.95.05,1.34.05,2.54,0,3.66a45.5,45.5,0,0,1-1.06,8.17q-.29,1.26-2.51,8.43l-.53,1.14-.53,1.17-2.14,5.36-.13.73-.2,3.08v3.89c0,.21,0,.33,0,.33l.12-.24c.08-.25.17-.51.28-.78.63-1.54,1-2.47,1.23-2.8a10.27,10.27,0,0,1,1.8-2.38,5.16,5.16,0,0,1,1.69-1.12,4.3,4.3,0,0,1,1.9-.47,10.64,10.64,0,0,1,1.27.65,4.48,4.48,0,0,1,1.22,1.38,3.28,3.28,0,0,1,.62,1.62.84.84,0,0,1-.13.4,4.2,4.2,0,0,1-.2.45,10.11,10.11,0,0,1-.76,1.44,4.16,4.16,0,0,0-.67,1.48c0,.11,0,.17.09.2l1.63-1.14a16.4,16.4,0,0,0,2.12-2.31l2-2.67c-.56,1.89-.95,3-1.12,3.45s-.5.89-.87,1.46a14.57,14.57,0,0,0-.9,1.42l-.57.72a9.2,9.2,0,0,0-.74.85c-.21.22-.55.54-1,1a5.57,5.57,0,0,1-3.1,1.26s-.14.05-.41.07a2.24,2.24,0,0,1-.73,0,1.39,1.39,0,0,1-1-1.53,7.85,7.85,0,0,1,.53-1.67l.78-2A1.6,1.6,0,0,0,440.27,457Zm-1-17.05c.06-.16.17-.52.32-1.07s.31-1,.41-1.44a8.19,8.19,0,0,0,.61-1.74l.29-1.18.86-4.78.28-3a9.94,9.94,0,0,0,.11-1.82l-.19-1.66-.74,1.11-.41.72a7.1,7.1,0,0,0-.58,1.3l-.39,1.3-.69,2.5c-.09.36-.31,1.24-.65,2.64-.07.24-.18.71-.37,1.38a9.24,9.24,0,0,1-.21,1.05,13.79,13.79,0,0,1-.29,2c-.21,1.14-.33,1.88-.36,2.23l-.42,4.45-.28,2.44,1.27-2.51.81-1.91Z"/>
   <path fill="#fff" d="M465.35,454.08c.07.8.11,1.42.11,1.87a2.59,2.59,0,0,1-.07.82l-5.63,3.77-2.12.56-2,.36-.91-.12a6.9,6.9,0,0,1-3.1-1.5,4,4,0,0,0-.78-1.17l-.8-1.5-.55-1.71-.35-2.31a2.91,2.91,0,0,1,.1-1.25,15.87,15.87,0,0,1,.62-2l.53-1.58,1-2.11a1.63,1.63,0,0,1,.85-1,10.73,10.73,0,0,1,3.41-2.93c.15-.62.8-.94,1.95-.94a3.49,3.49,0,0,1,2.4,1c.23.05.4.54.49,1.49a12.14,12.14,0,0,1,.09,1.22.62.62,0,0,1-.49.52c.08.75-.51,1.9-1.76,3.41a9.92,9.92,0,0,1-3,2.67l-.82,1-1.06.88-.21,1.06a3.69,3.69,0,0,0,2.32,3l1.89.51a10.9,10.9,0,0,0,6.51-2.63,2.45,2.45,0,0,0,1.09-1A2.28,2.28,0,0,1,465.35,454.08Zm-8.7-8.54a3.18,3.18,0,0,0-2.61,1.62,6.76,6.76,0,0,0-1.27,2.95,1.79,1.79,0,0,0,1.13.61,2.64,2.64,0,0,0,1.85-1.22,2.94,2.94,0,0,0,1.14-1.27,2.72,2.72,0,0,0,.45-1.6A1.77,1.77,0,0,0,456.65,445.54Z"/>
   <path fill="#fff" d="M450.55,442.18a3.12,3.12,0,0,1-1.19-.15,3.27,3.27,0,0,1-.77-.84,3.43,3.43,0,0,1,1.28-3,11.56,11.56,0,0,1,3.51-2.23l1.64-.65,1.17-.29a7.14,7.14,0,0,1,1.48-.16A5.72,5.72,0,0,1,459,435a20.41,20.41,0,0,1,2.19.68l1.84,1a7.83,7.83,0,0,1,1.6,1.19c.64.6,1.28,1.21,1.91,1.83a9.43,9.43,0,0,1,1.18,2.23l.08.65-.08.45L465.79,441l-1.42-1.26a11.69,11.69,0,0,0-5.59-2.72,9,9,0,0,0-2.95.37l-1.67,1a14.75,14.75,0,0,0-1.44,1.63l-.85,1.53-.56.53ZM455,464.34a1.81,1.81,0,0,1,.17-.66l.27-.68a2.33,2.33,0,0,1,1.07-.93,2.75,2.75,0,0,0,.73-.52l.77-.73a2.63,2.63,0,0,1,1.1-.37,1.9,1.9,0,0,1,1.93,1.13,3,3,0,0,1-.45,1.78,3.93,3.93,0,0,1-2.73,1.58,1.5,1.5,0,0,0-1.06.65l-.75,0a.72.72,0,0,1-.37-.08l-.13-.16A8.32,8.32,0,0,1,455,464.34Z"/>
   <path fill="#fff" d="M492.67,464.31a18.24,18.24,0,0,1-9.38-4,15.9,15.9,0,0,1-4.32-4.74,4.17,4.17,0,0,1-.58-1.14l-.33-.81a5.79,5.79,0,0,0-.28-1l-.09-.66-.2-.81.11-1.38a13.94,13.94,0,0,1,.13-1.42c.08-.3.21-.84.37-1.66a16.79,16.79,0,0,1,2.08-5.83l.87-.94,1.06-1.42,1.14-1.18,1.17-.88,2.17-1.95a7.19,7.19,0,0,1,2.9-1.35c-.05-.31.37-.65,1.26-1l3.84-1.62a41.28,41.28,0,0,1,16-3.57H512c6.54,0,10.4,1.2,11.59,3.57l.78,1.54.9,1.94a7.62,7.62,0,0,0,.16,1.21l.28,1.55,0,1.78-.65,2.31c-.27,1-.55,1.91-.81,2.8-.19.68-.39,1.05-.59,1.13l-.6,1-.61,1.06-.77,1.42c-.28.52-2.1.88-5.44,1.09l-2.13-.32-.64-.9a13.51,13.51,0,0,1,2.12-10.9l2.12-2.11a1.63,1.63,0,0,0,.08-1l-.08-.37c-.1-.52-2-1.2-5.56-2.06l-1-.08h-1.52q-9.63,0-14.58,3.52a17.09,17.09,0,0,0-4.07,4.37,12.1,12.1,0,0,0-2,3.9l-.74,3.57c0,.4-.17,1.36-.41,2.87l.29,1.82.3.73.19,1.1.45.56.28.41.57.85,1.28,1.43,1.54,1.21,1.35.81,2.18,1,2.69,1a27.16,27.16,0,0,0,6.29,1.5,8.91,8.91,0,0,1,1.95.12,48.76,48.76,0,0,0,8.53-.6c.86-.13,2.19-.42,4-.88l2-.7c-.27,0,0-.12.65-.32.43-.14.87-.28,1.31-.4a5.38,5.38,0,0,0,1-.57l2.91-2.13-.69,1.79a10.85,10.85,0,0,1-3.23,3.21l-1.46.85-2.2.81-4.86,1.21a39.1,39.1,0,0,1-9.55,1.14,60,60,0,0,1-6.7-.57Z"/>
   <path fill="#fff" d="M548.58,459.88l-.34.08-.93.12-.65-.08a3.67,3.67,0,0,1-1.82-.67,7.17,7.17,0,0,1-1.33-1.65,13.68,13.68,0,0,1-1-2.34l-.41-2.23-.58.69a9.9,9.9,0,0,0-.86,1l-.67.68-.45.61-.18.12-1.11,1.27c-.15.18-.9.89-2.23,2.14a19.79,19.79,0,0,1-1.6,1.54,8.08,8.08,0,0,1-1.38.93l-.77.4-.63.13-.65-.09c-.82,0-1.45-.78-1.92-2.26l-.15-.53a1.32,1.32,0,0,1,0-.64l.36-.9a1.82,1.82,0,0,0-.53-1.27l-.29-.59v-.77c0-1.11,1-2.72,2.9-4.82.34-.3.9-.87,1.72-1.71,1.49-1.56,3.73-3.69,6.74-6.36l2.89-1.58c.65-.05,1.5-.16,2.54-.33l1.62.6c.5.21,1,1,1.47,2.28a10.82,10.82,0,0,1-.19,2.27q0,.29-.45-.33l-.59-.72a4.66,4.66,0,0,0-2.45-.89,4.53,4.53,0,0,0-1.83.77A9.7,9.7,0,0,0,540.4,447l-1.26,1.27L538,449.83l-.86.89c-.46.57-1,1.26-1.54,2.07l-1.87,2.63-.53,1.15.15.46.9.42a6.88,6.88,0,0,0,2.58-1.17l2.27-2.27c.33-.43,1-1.16,1.93-2.19.57-.89,1.36-2,2.36-3.41.16-.24.47-.83,1-1.78s1-1.26,1.46-1.26l.5,7.42c.13,2,1.26,3.15,3.39,3.53a5.37,5.37,0,0,0,2.41-1.09l.15.52a2.05,2.05,0,0,1-.2.73l.25.65c-.08.6-.6,1.19-1.55,1.78A6.93,6.93,0,0,1,548.58,459.88Z"/>
   <path fill="#fff" d="M555.84,458.79a2.63,2.63,0,0,1-1.63-1.76.65.65,0,0,0-.13-.35v-3c-.25,0-.64.31-1.23.92a4.62,4.62,0,0,1-1.13,1l-.05-.24a4.39,4.39,0,0,1,.05-1.09l-.09-.21-.12-.12-.07-.68a8.43,8.43,0,0,1,1.63-2l2.36-2.32a4.36,4.36,0,0,1,.82-1.25l2.57-2.4.57-.07c.79,0,1.24.15,1.35.48l-.16.44-.21.66a3.26,3.26,0,0,0,1.15-.33l1.09-.29a3.44,3.44,0,0,1,2.71,1.27l.32.55.32,1.26a7,7,0,0,1,.09,1.1,5.58,5.58,0,0,1-.48,2.55l-.41.72a9.47,9.47,0,0,0-.54,1.11l-.79.84-.31.58-1.67,1.57-1.19,1a3.88,3.88,0,0,1-2.58.73C556.89,459.52,556.14,459.28,555.84,458.79Zm6.83-4.9a8.88,8.88,0,0,0,.39-1.5v-.94c-.06-1.05-.51-1.58-1.41-1.58a1.52,1.52,0,0,0-.93.24l-.93.94c-.3.67-.7,1-1.22,1a5.49,5.49,0,0,0-.88,3.08l0,.32c.1.82.47,1.26,1,1.35A8.33,8.33,0,0,0,562.67,453.89Z"/>
   <path fill="#f3db7e" d="M477.62,189.55c0,104.7-85.51,189.57-191,189.57s-191-84.87-191-189.57S181.15,0,286.63,0,477.62,84.87,477.62,189.55Z"/>
   <path fill="#0a6bad" d="M358.13,224.57c-25.6-11.06-21-32.78-20.24-35.9,7.15-25.34,38.72-55.84,75.31-70.21-29.74-21.53-60.07,2.44-60.07,2.44s5.75-7.24,28.06-16.78c-20.85,2.54-41.48,10.23-56.85,30.32-17.08,22.29-10.16,51.76-2.31,71.14-16.89-12.71-28.44-29.93-42-59.1-30.95-71.85-137-44.41-137-44.41s59.09,2.68,82.95,49.19c35.33,68.92,79.14,73.26,79.14,73.26-47.21-3.14-52.81,30.32-52.81,30.32s14.27-4.51,28.38-2.12c41.1,7,76.78-20.4,81.69-25.57a2.91,2.91,0,0,0,.24-.27,2.2,2.2,0,0,0,.34-.46C361.3,225.8,359.7,225.19,358.13,224.57Z"/>
   <path fill="#d92728" fill-rule="evenodd" d="M202.86,293.51c.27-.71.46-1.15.59-1.59,1.17-3.84,2.35-7.67,3.45-11.52.29-1.11.76-1.62,2-1.57,2.41.1,4.84,0,7.25,0,.77,0,1.29.1,1.29,1.11q0,13,0,26.14a4,4,0,0,1-.1.61h-7.63v-13l-.25-.08c-.18.56-.4,1.11-.55,1.68-.95,3.39-1.9,6.78-2.77,10.19-.25,1-.66,1.39-1.72,1.28-1.41-.13-3.23.4-4.15-.3s-1-2.54-1.36-3.89c-.78-2.73-1.54-5.46-2.3-8.19a1.11,1.11,0,0,0-.49-.68v12.93h-7.75c0-.47-.09-.89-.09-1.31,0-8.32,0-16.65,0-25,0-1.21.33-1.63,1.57-1.59,2.37.07,4.74.08,7.12,0,1.15,0,1.58.43,1.89,1.48,1.11,3.86,2.31,7.68,3.49,11.5C202.44,292.29,202.6,292.72,202.86,293.51Z"/>
   <path fill="#d92728" fill-rule="evenodd" d="M239.77,306.79V288.67c0-2.84,0-5.68,0-8.52,0-.67,0-1.31.94-1.28,4.34.14,8.71-.08,13,.47a11.92,11.92,0,0,1,10.21,11.45,20.17,20.17,0,0,1-.93,8.26c-1.91,5.09-5.94,7.32-11,7.67C247.94,307,243.94,306.79,239.77,306.79Zm10-20.49c-.69.07-1.6-.29-1.58,1.05,0,3.52,0,7,0,10.56,0,.34.44,1,.7,1,3.2.17,5.68-.54,6.43-3.93a10.79,10.79,0,0,0,.12-3.76C255.05,287.86,253.2,286.34,249.77,286.3Z"/>
   <path fill="#d92728" fill-rule="evenodd" d="M384.05,290.36c-2.64,0-5.2,0-7.75,0-.33,0-.75-.5-.95-.87-1.49-2.89-3.81-4.09-6.74-3.44a6.26,6.26,0,0,0-4.61,6.12,10,10,0,0,0,.84,3.93,5.38,5.38,0,0,0,4.86,3.28,5.28,5.28,0,0,0,5.31-3,2.26,2.26,0,0,1,2.45-1.35c2.16.08,4.32,0,6.44,0,.78,4.87-5.71,11.1-12,11.78a14.46,14.46,0,0,1-16.3-13.48,14.21,14.21,0,0,1,13.53-14.87C377,278.23,384.15,283.81,384.05,290.36Z"/>
   <path fill="#d92728" fill-rule="evenodd" d="M313.11,306.81c-2.79,0-5.5.05-8.2,0-.35,0-.84-.56-1-1-1.09-3.11-1.07-3.11-4.35-3.11h-.44c-1.23,0-2.74-.4-3.63.17s-.94,2.08-1.48,3.15a1.5,1.5,0,0,1-1,.78c-2.65.06-5.31,0-8.2,0l1.11-2.85c3.14-7.91,6.3-15.81,9.39-23.74a1.79,1.79,0,0,1,2-1.39c1.27.09,2.57-.06,3.85.06a1.92,1.92,0,0,1,1.4.89c3.49,8.72,6.91,17.47,10.34,26.21A5.54,5.54,0,0,1,313.11,306.81Zm-13.85-15.63h-.36c-.44,1.45-.88,2.9-1.36,4.5h3Z"/>
   <path fill="#d92728" fill-rule="evenodd" d="M228.8,288.72h7.52v7.45h-7.55v2.75h7.79v7.8H220.62c0-.4-.09-.82-.09-1.24,0-8.37,0-16.76,0-25.11,0-1.15.31-1.54,1.47-1.53,4.4.05,8.78,0,13.17,0,1.09,0,1.62.24,1.55,1.47-.11,1.91,0,3.81,0,6h-6.09C228.5,286.3,228.5,286.3,228.8,288.72Z"/>
   <path fill="#d92728" fill-rule="evenodd" d="M337.19,306.82c0-.66-.08-1.16-.08-1.63,0-8.22,0-16.44,0-24.66,0-1.25.3-1.73,1.63-1.69,4.29.07,8.59.05,12.87,0,1.22,0,1.68.4,1.62,1.61a38,38,0,0,0,0,4.27c.1,1.33-.46,1.67-1.71,1.61-1.68-.11-3.36,0-5,0-.85,0-1.38.13-1.39,1.17s.53,1.28,1.46,1.25c1.67,0,3.35.06,5,0,1.06-.05,1.39.35,1.36,1.35-.05,1.6-.05,3.23,0,4.85,0,1-.3,1.38-1.35,1.33-2.06-.08-4.13,0-6.16,0-.74,2.34-.49,2.73,1.76,2.73,1.62,0,3.25,0,4.87,0,.81,0,1.17.29,1.16,1.1,0,1.9,0,3.82,0,5.73,0,.71-.25,1.06-1,1.06C347.23,306.8,342.31,306.82,337.19,306.82Z"/>
   <path fill="#d92728" fill-rule="evenodd" d="M317.32,306.71V288.53c0-2.23,0-2.23-2.21-2.23h-5.38v-7.23h24.52v7.23c-1.88,0-3.78.07-5.67,0-1.45-.08-2,.31-1.93,1.85.09,5.62,0,11.26,0,16.88v1.71Z"/>
   <path fill="#d92728" fill-rule="evenodd" d="M282.49,299v7.77a5.79,5.79,0,0,1-.76.08c-4.63,0-9.26,0-13.91,0-1,0-1.3-.31-1.3-1.26,0-8.47,0-16.92,0-25.4,0-1.05.48-1.35,1.44-1.32,1.87,0,3.74,0,5.62,0,1.06-.05,1.31.42,1.31,1.39,0,5.68,0,11.36-.05,17,0,1.4.47,1.76,1.78,1.7C278.52,298.89,280.45,299,282.49,299Z"/>
  </g>
 </g>
</svg>
